<svg width="364" height="350" viewBox="0 0 364 350" fill="none" xmlns="http://www.w3.org/2000/svg">
<g clip-path="url(#clip0_2827_45624)">
<path d="M85.5826 236.453C84.9123 237.568 83.8565 238.398 82.6154 238.785C81.3743 239.173 80.0343 239.09 78.8499 238.554C77.6655 238.017 76.719 237.064 76.1902 235.875C75.6613 234.686 75.5869 233.344 75.981 232.103L55.4788 189.929L65.2927 183.97L82.9988 228.768C83.0664 228.794 83.1331 228.822 83.1989 228.851C83.2646 228.88 83.33 228.91 83.395 228.941L83.5912 229.039C83.6569 229.072 83.7207 229.109 83.7824 229.149C84.9882 229.878 85.8556 231.056 86.1939 232.425C86.5321 233.794 86.3134 235.242 85.586 236.449L85.5826 236.453Z" fill="#FEB8B8"/>
<path d="M59.3925 206.191L73.9567 202.453C73.9567 202.453 73.481 201.376 72.7082 199.593C71.9353 197.81 70.8555 195.321 69.6409 192.5C68.4262 189.679 67.0786 186.523 65.762 183.404C64.4453 180.286 63.163 177.205 62.0871 174.535C61.0112 171.865 59.7823 170.263 58.5529 169.369C57.5339 168.594 56.2505 168.252 54.9815 168.419C53.9952 168.566 53.0525 168.925 52.2182 169.472C51.8232 169.718 51.4519 170 51.109 170.315L47.7322 176.464L59.3925 206.191Z" fill="#CCCCCC"/>
<path d="M44.9189 319.784L53.8321 319.749L50.958 343.069L44.9189 343.099V319.784Z" fill="#FEB8B8"/>
<path d="M43.3792 348.966L62.8408 348.863V348.618C62.8406 348.118 62.7913 347.619 62.6937 347.128C62.5024 346.16 62.121 345.24 61.5717 344.421C61.0138 343.591 60.2987 342.879 59.467 342.324C58.6463 341.778 57.7254 341.4 56.7577 341.212C56.2671 341.118 55.7685 341.072 55.2689 341.075L43.3772 341.133L43.3792 348.966Z" fill="#2F2E41"/>
<path d="M73.458 319.674L82.3456 319.639L79.4808 342.927L73.4585 342.957L73.458 319.674Z" fill="#FEB8B8"/>
<path d="M71.9226 348.815L91.3333 348.713V348.468C91.3328 347.968 91.2836 347.47 91.1862 346.98C90.9954 346.014 90.615 345.095 90.0671 344.277C89.5109 343.448 88.7975 342.736 87.9673 342.182C87.1489 341.636 86.2305 341.259 85.2653 341.072C84.776 340.978 84.2787 340.932 83.7804 340.935L71.9216 340.993L71.9226 348.815Z" fill="#2F2E41"/>
<path d="M73.8356 224.359L88.7808 280.205L83.3102 333.738L71.1978 334.072L73.8351 285.735L58.7241 261.613L55.4469 334.401L44.458 333.623L38.3474 271.04C36.2713 266.153 34.7488 261.049 33.8084 255.823C33.0693 251.72 32.7098 247.558 32.7345 243.39C32.7469 240.583 32.9623 237.782 33.3788 235.007C33.5277 233.973 33.7291 232.947 33.9825 231.933L38.4386 227.41L73.8356 224.359Z" fill="#2F2E41"/>
<path d="M54.0341 233.7C56.5473 233.7 58.906 233.619 61.0465 233.46C63.231 233.31 65.404 233.023 67.5528 232.602C69.3823 232.26 71.164 231.698 72.8592 230.929C74.224 230.339 75.4107 229.402 76.3012 228.21L76.4032 228.062L72.3183 201.443L67.9133 171.512C67.6238 169.531 66.6168 167.726 65.0841 166.44C63.5514 165.155 61.5999 164.478 59.6014 164.54L45.8051 164.963C43.7553 165.026 41.8144 165.902 40.4094 167.398C39.0044 168.893 38.2504 170.887 38.3132 172.939C38.3156 173.017 38.3191 173.095 38.3239 173.172L40.1348 202.938L33.4544 232.301L33.9276 232.367C34.1179 232.392 34.851 232.489 35.9995 232.618C37.5005 232.787 39.0334 232.94 40.5551 233.071C42.7078 233.257 44.815 233.403 46.8167 233.506C49.3535 233.634 51.7867 233.697 54.0341 233.7Z" fill="#CCCCCC"/>
<path d="M61.6899 159.252H61.7007C62.2852 159.251 62.8455 159.018 63.2585 158.603C63.6715 158.189 63.9034 157.628 63.9034 157.042V144.727C63.9056 142.521 63.4647 140.336 62.6069 138.304C60.9266 134.337 57.7822 131.173 53.8291 129.471C51.3294 128.397 48.6027 127.961 45.8934 128.202C43.184 128.442 40.5766 129.352 38.3044 130.849C36.0323 132.346 34.1664 134.384 32.874 136.78C31.5815 139.177 30.9028 141.857 30.8985 144.58V156.915C30.8981 157.212 30.9575 157.505 31.0731 157.779C31.2996 158.312 31.723 158.737 32.2549 158.965C32.5279 159.082 32.8216 159.142 33.1185 159.143L61.6899 159.252Z" fill="#2F2E41"/>
<path d="M39.9509 140.504C38.8 142.608 38.2979 145.007 38.5078 147.398C38.7178 149.788 39.6305 152.062 41.1307 153.934C42.6308 155.805 44.6512 157.189 46.9365 157.911C49.2218 158.633 51.6697 158.661 53.9708 157.991C55.4949 157.553 56.9169 156.816 58.1544 155.824C59.392 154.831 60.4205 153.602 61.1804 152.209C62.3285 150.105 62.8287 147.708 62.6182 145.32C62.4076 142.932 61.4956 140.66 59.9971 138.79C58.4986 136.92 56.4808 135.536 54.198 134.813C51.9152 134.09 49.4697 134.059 47.1698 134.726C45.6446 135.163 44.2212 135.898 42.9822 136.89C41.7432 137.882 40.7132 139.111 39.9519 140.504L39.9509 140.504Z" fill="#FEB8B8"/>
<path d="M67.8049 145.73C67.8064 143.985 67.4575 142.257 66.779 140.65C65.4507 137.514 62.9647 135.012 59.8392 133.666C58.2356 132.978 56.5103 132.62 54.7657 132.613L52.304 132.601H52.2212C48.7784 132.603 45.4775 133.975 43.0446 136.414C40.6117 138.853 39.2461 142.16 39.2482 145.607V145.852L44.456 145.873L46.2317 140.906L46.5867 145.883L49.2764 145.895L50.1719 143.391L50.3513 145.9L67.8024 145.978L67.8049 145.73Z" fill="#2F2E41"/>
<path d="M88.7715 171.639C89.5731 171.835 90.3226 172.204 90.9684 172.719C91.473 173.119 91.9044 173.603 92.2434 174.151C92.9125 175.235 93.2073 176.509 93.0824 177.777C93.0194 178.418 92.8458 179.043 92.5695 179.624C92.2289 180.348 91.7387 180.992 91.1313 181.513C90.5238 182.033 89.813 182.419 89.0457 182.644C88.2785 182.87 87.4722 182.93 86.6801 182.82C85.888 182.71 85.1282 182.434 84.4508 182.008C84.4008 181.975 84.3517 181.943 84.3037 181.91C84.2556 181.877 84.2076 181.843 84.1595 181.808C84.1121 181.774 84.0654 181.738 84.0193 181.703C83.9732 181.667 83.9276 181.631 83.8824 181.594L55.1463 191.835C54.262 192.15 53.2996 192.168 52.4038 191.888C51.5079 191.608 50.7273 191.044 50.1792 190.281L43.3635 180.836L51.6018 175.282L55.923 180.197L82.223 174.959C82.2518 174.89 82.2815 174.822 82.3122 174.755C82.3429 174.688 82.3756 174.62 82.4103 174.553C82.443 174.488 82.478 174.421 82.5153 174.354C82.5525 174.286 82.5906 174.221 82.6295 174.157C83.2571 173.142 84.1893 172.352 85.2927 171.9C86.3961 171.448 87.6142 171.356 88.7725 171.64L88.7715 171.639Z" fill="#FEB8B8"/>
<path d="M55.4596 177.096C54.6 176.021 53.4001 174.627 52.177 173.243C50.954 171.859 49.7168 170.489 48.7817 169.462C47.8465 168.436 47.2178 167.757 47.2178 167.757C46.3549 166.451 45.067 165.484 43.5728 165.021C42.0787 164.557 40.4704 164.626 39.0212 165.216C37.572 165.805 36.3712 166.878 35.6228 168.254C34.8745 169.629 34.6246 171.221 34.9157 172.76C35.082 173.646 35.4257 174.489 35.9259 175.239C35.9259 175.239 36.8635 176.466 38.2797 178.301C39.6959 180.135 41.5883 182.575 43.4983 185.002C45.4084 187.428 47.337 189.843 48.8238 191.625C50.3107 193.406 51.3576 194.558 51.5047 194.459L56.6915 179.021C56.8381 178.922 56.3193 178.17 55.4596 177.096Z" fill="#CCCCCC"/>
<path d="M52.3806 158.863C52.4622 159.262 52.4306 159.675 52.2894 160.056C52.2184 160.251 52.1205 160.435 51.9986 160.603C51.8943 160.746 51.7735 160.876 51.6386 160.991C51.239 161.329 50.732 161.513 50.2087 161.511C50.176 161.511 50.1433 161.51 50.1106 161.508C50.0779 161.506 50.0452 161.504 50.0125 161.501C49.9798 161.499 49.9471 161.495 49.9144 161.49C49.8818 161.486 49.8491 161.481 49.8164 161.475L47.9681 161.138L45.4221 155.692V160.681L37.018 159.166V137.996L51.1066 138.063L50.7584 138.468C49.6023 139.828 48.8431 141.48 48.5644 143.243C48.2911 145.029 48.3255 146.849 48.6659 148.623C48.9969 150.418 49.4992 152.178 50.166 153.877C50.7489 155.382 51.4179 156.853 52.1697 158.281C52.2669 158.464 52.3378 158.66 52.3806 158.863Z" fill="#2F2E41"/>
<path d="M362.965 350H0.5V348.966H363.5L362.965 350Z" fill="#CACACA"/>
<path d="M266.891 82.9275H264.978V30.4008C264.978 22.338 261.779 14.6055 256.085 8.90419C250.391 3.20293 242.669 3.96585e-09 234.616 3.96585e-09H123.472C119.485 -6.44768e-05 115.537 0.786212 111.853 2.31394C108.169 3.84166 104.822 6.08091 102.003 8.90384C99.1836 11.7268 96.9471 15.0781 95.4212 18.7665C93.8953 22.4548 93.1099 26.408 93.1099 30.4003V318.566C93.1099 322.558 93.8952 326.511 95.421 330.199C96.9469 333.888 99.1833 337.239 102.003 340.062C104.822 342.885 108.169 345.125 111.853 346.652C115.536 348.18 119.484 348.966 123.472 348.966H234.615C242.667 348.966 250.39 345.763 256.084 340.062C261.778 334.361 264.977 326.628 264.977 318.566V120.317H266.889L266.891 82.9275Z" fill="#3F3D56"/>
<path d="M258.786 320.601C258.785 326.714 256.36 332.577 252.043 336.9C247.727 341.223 241.872 343.652 235.767 343.655H122.342C116.235 343.656 110.377 341.227 106.057 336.904C101.737 332.581 99.3096 326.716 99.3078 320.601V28.3646C99.3096 22.2493 101.737 16.3852 106.057 12.062C110.376 7.73873 116.234 5.31046 122.341 5.31124H136.1C135.425 6.97477 135.168 8.77901 135.352 10.5653C135.535 12.3517 136.155 14.0655 137.155 15.556C138.155 17.0466 139.506 18.2683 141.088 19.1137C142.671 19.9592 144.436 20.4026 146.23 20.4049H210.895C212.688 20.4026 214.454 19.9592 216.036 19.1137C217.618 18.2683 218.969 17.0466 219.969 15.556C220.97 14.0655 221.589 12.3517 221.773 10.5653C221.957 8.77901 221.7 6.97477 221.024 5.31124H235.762C241.868 5.31228 247.723 7.74084 252.04 12.063C256.357 16.3852 258.784 22.2471 258.786 28.3602V320.601Z" fill="white"/>
<path d="M180.263 145.277C167.349 145.282 154.962 140.15 145.827 131.011C136.692 121.871 131.556 109.473 131.55 96.5422V96.499C131.55 96.3968 131.55 96.2893 131.556 96.1872C131.703 69.4763 153.556 47.7246 180.263 47.7246C193.182 47.7239 205.573 52.862 214.709 62.0087C223.845 71.1553 228.978 83.5612 228.978 96.4973C228.979 109.433 223.847 121.84 214.713 130.987C205.578 140.135 193.188 145.275 180.268 145.275H180.263V145.277ZM180.263 48.7508C167.673 48.779 155.603 53.7806 146.675 62.669C137.747 71.5573 132.682 83.6143 132.582 96.2201C132.576 96.3291 132.577 96.4165 132.577 96.4995C132.575 105.944 135.371 115.178 140.611 123.031C145.851 130.885 153.299 137.007 162.013 140.623C170.727 144.238 180.317 145.185 189.568 143.343C198.82 141.502 207.319 136.955 213.99 130.277C220.661 123.599 225.204 115.091 227.045 105.828C228.887 96.5643 227.943 86.9624 224.335 78.2359C220.726 69.5095 214.614 62.0505 206.772 56.8022C198.929 51.5539 189.708 48.752 180.276 48.7508H180.263Z" fill="#CCCCCC"/>
<path d="M230.635 196.559H129.845C129.35 196.559 128.875 196.362 128.525 196.011C128.176 195.661 127.979 195.186 127.978 194.69V169.657C127.979 169.161 128.176 168.686 128.526 168.336C128.875 167.986 129.35 167.789 129.845 167.788H230.635C231.13 167.789 231.605 167.986 231.954 168.336C232.304 168.686 232.501 169.161 232.502 169.657V194.691C232.501 195.186 232.304 195.661 231.954 196.012C231.605 196.362 231.13 196.559 230.635 196.559ZM129.845 168.535C129.548 168.536 129.263 168.654 129.053 168.864C128.843 169.074 128.725 169.359 128.725 169.657V194.691C128.725 194.988 128.843 195.273 129.053 195.484C129.263 195.694 129.548 195.812 129.845 195.812H230.635C230.932 195.812 231.217 195.694 231.427 195.484C231.637 195.273 231.755 194.988 231.755 194.691V169.657C231.755 169.359 231.637 169.074 231.427 168.864C231.217 168.654 230.932 168.536 230.635 168.535H129.845Z" fill="#E6E6E6"/>
<path d="M142.91 190.022C147.239 190.022 150.749 186.508 150.749 182.173C150.749 177.838 147.239 174.324 142.91 174.324C138.58 174.324 135.071 177.838 135.071 182.173C135.071 186.508 138.58 190.022 142.91 190.022Z" fill="#CCCCCC"/>
<path d="M161.015 176.94C160.668 176.94 160.336 177.078 160.091 177.324C159.846 177.569 159.708 177.902 159.708 178.249C159.708 178.596 159.846 178.929 160.091 179.174C160.336 179.419 160.668 179.557 161.015 179.557H222.609C222.955 179.57 223.293 179.445 223.547 179.21C223.801 178.974 223.952 178.646 223.965 178.3C223.978 177.953 223.853 177.615 223.618 177.36C223.382 177.106 223.055 176.955 222.709 176.942C222.69 176.941 222.671 176.941 222.652 176.941L161.015 176.94Z" fill="#E6E6E6"/>
<path d="M161.015 184.789C160.668 184.789 160.336 184.927 160.091 185.172C159.846 185.418 159.708 185.751 159.708 186.098C159.708 186.445 159.846 186.777 160.091 187.023C160.336 187.268 160.668 187.406 161.015 187.406H222.609C222.955 187.419 223.293 187.294 223.547 187.058C223.801 186.822 223.952 186.495 223.965 186.148C223.978 185.802 223.853 185.464 223.618 185.209C223.382 184.954 223.055 184.804 222.709 184.791C222.69 184.79 222.671 184.79 222.652 184.79L161.015 184.789Z" fill="#E6E6E6"/>
<path d="M230.635 238.422H129.845C129.35 238.422 128.875 238.225 128.525 237.874C128.176 237.524 127.979 237.049 127.978 236.553V211.52C127.979 211.024 128.176 210.549 128.526 210.199C128.875 209.849 129.35 209.652 129.845 209.651H230.635C231.13 209.652 231.605 209.849 231.954 210.199C232.304 210.549 232.501 211.024 232.502 211.52V236.554C232.501 237.049 232.304 237.524 231.954 237.874C231.604 238.225 231.13 238.422 230.635 238.422ZM129.845 210.398C129.548 210.399 129.263 210.517 129.053 210.727C128.843 210.937 128.725 211.222 128.725 211.52V236.554C128.725 236.851 128.843 237.136 129.053 237.347C129.263 237.557 129.548 237.675 129.845 237.675H230.635C230.932 237.675 231.217 237.557 231.427 237.347C231.637 237.136 231.755 236.851 231.755 236.554V211.52C231.755 211.222 231.637 210.937 231.427 210.727C231.217 210.517 230.932 210.399 230.635 210.398H129.845Z" fill="#E6E6E6"/>
<path d="M142.91 231.886C147.239 231.886 150.749 228.372 150.749 224.037C150.749 219.702 147.239 216.187 142.91 216.187C138.58 216.187 135.071 219.702 135.071 224.037C135.071 228.372 138.58 231.886 142.91 231.886Z" fill="#CCCCCC"/>
<path d="M161.015 218.802C160.668 218.802 160.336 218.94 160.091 219.185C159.846 219.43 159.708 219.763 159.708 220.11C159.708 220.457 159.846 220.79 160.091 221.035C160.336 221.281 160.668 221.418 161.015 221.418H222.609C222.951 221.417 223.278 221.281 223.521 221.04C223.764 220.8 223.903 220.473 223.908 220.131C223.914 219.789 223.785 219.459 223.551 219.21C223.316 218.962 222.993 218.816 222.652 218.802L161.015 218.802Z" fill="#E6E6E6"/>
<path d="M161.015 226.653C160.668 226.653 160.336 226.79 160.091 227.036C159.846 227.281 159.708 227.614 159.708 227.961C159.708 228.308 159.846 228.641 160.091 228.886C160.336 229.131 160.668 229.269 161.015 229.269H222.609C222.951 229.267 223.278 229.132 223.521 228.891C223.764 228.65 223.903 228.324 223.908 227.982C223.914 227.64 223.785 227.309 223.551 227.061C223.316 226.813 222.993 226.666 222.652 226.653L161.015 226.653Z" fill="#E6E6E6"/>
<path d="M230.635 280.285H129.845C129.35 280.284 128.875 280.087 128.525 279.737C128.176 279.386 127.979 278.911 127.978 278.416V253.382C127.979 252.887 128.176 252.412 128.526 252.061C128.875 251.711 129.35 251.514 129.845 251.513H230.635C231.13 251.514 231.605 251.711 231.954 252.061C232.304 252.412 232.501 252.887 232.502 253.382V278.416C232.501 278.912 232.304 279.387 231.954 279.737C231.605 280.087 231.13 280.284 230.635 280.285ZM129.845 252.261C129.548 252.261 129.263 252.379 129.053 252.59C128.843 252.8 128.725 253.085 128.725 253.382V278.416C128.725 278.714 128.843 278.999 129.053 279.209C129.263 279.419 129.548 279.537 129.845 279.538H230.635C230.932 279.537 231.217 279.419 231.427 279.209C231.637 278.999 231.755 278.714 231.755 278.416V253.382C231.755 253.085 231.637 252.8 231.427 252.59C231.217 252.379 230.932 252.261 230.635 252.261H129.845Z" fill="#E6E6E6"/>
<path d="M142.91 273.749C147.239 273.749 150.749 270.235 150.749 265.9C150.749 261.564 147.239 258.05 142.91 258.05C138.58 258.05 135.071 261.564 135.071 265.9C135.071 270.235 138.58 273.749 142.91 273.749Z" fill="#CCCCCC"/>
<path d="M161.015 260.666C160.668 260.666 160.336 260.804 160.091 261.049C159.846 261.294 159.708 261.627 159.708 261.974C159.708 262.321 159.846 262.654 160.091 262.899C160.336 263.145 160.668 263.282 161.015 263.282H222.609C222.955 263.296 223.293 263.171 223.547 262.935C223.801 262.699 223.952 262.372 223.965 262.025C223.978 261.678 223.853 261.34 223.618 261.086C223.382 260.831 223.055 260.681 222.709 260.667C222.69 260.667 222.671 260.666 222.652 260.666L161.015 260.666Z" fill="#E6E6E6"/>
<path d="M161.015 268.516C160.668 268.516 160.336 268.653 160.091 268.899C159.846 269.144 159.708 269.477 159.708 269.824C159.708 270.171 159.846 270.504 160.091 270.749C160.336 270.994 160.668 271.132 161.015 271.132H222.609C222.78 271.139 222.952 271.111 223.113 271.052C223.273 270.992 223.421 270.901 223.547 270.785C223.673 270.668 223.775 270.527 223.846 270.371C223.918 270.215 223.958 270.046 223.965 269.875C223.971 269.703 223.944 269.532 223.885 269.371C223.825 269.209 223.734 269.061 223.618 268.935C223.501 268.809 223.361 268.708 223.205 268.636C223.049 268.564 222.881 268.524 222.709 268.517C222.69 268.516 222.671 268.516 222.652 268.516L161.015 268.516Z" fill="#E6E6E6"/>
<path d="M119.843 212.349H138.425C139.587 203.762 137.023 195.746 138.425 190.022H119.843C116.344 197.465 116.344 204.907 119.843 212.349Z" fill="#FF6584"/>
<path d="M240.481 255.434H221.899C222.596 246.849 224.841 238.832 221.899 233.106H240.481C243.979 240.549 243.98 247.991 240.481 255.434Z" fill="#235DFF"/>
<path d="M206.11 298.692H187.527C188.224 290.107 190.47 282.091 187.527 276.365H206.109C209.608 283.807 209.608 291.249 206.11 298.692Z" fill="#235DFF"/>
<path d="M205.157 138.571C197.518 143.21 188.699 145.532 179.769 145.254C170.839 144.976 162.181 142.111 154.845 137.005C156.383 133.764 158.807 131.026 161.836 129.108C164.865 127.19 168.375 126.171 171.959 126.169H187.385C191.259 126.168 195.04 127.357 198.218 129.575C201.396 131.793 203.818 134.933 205.158 138.573L205.157 138.571Z" fill="#235DFF"/>
<path d="M159.22 93.792C161.553 86.3469 166.859 79.5184 174.197 76.9995C181.534 74.4807 194.336 76.835 197.796 83.8216C202.783 93.8907 200.542 106.221 197.898 117.154C196.519 117.081 195.128 117.023 193.73 116.971L191.756 110.382V116.906C180.862 116.569 169.521 116.78 158.173 116.999C157.158 109.26 156.887 101.237 159.22 93.792Z" fill="#2F2E41"/>
<path d="M175.208 117.758C184.434 117.758 191.913 110.269 191.913 101.031C191.913 91.7928 184.434 84.3038 175.208 84.3038C165.981 84.3038 158.502 91.7928 158.502 101.031C158.502 110.269 165.981 117.758 175.208 117.758Z" fill="#FEB8B8"/>
<path d="M164.311 80.8775C167.335 79.0316 170.798 78.0331 174.339 77.9863C177.881 77.9396 181.369 78.8463 184.441 80.6117C187.512 82.377 190.053 84.9362 191.799 88.0216C193.544 91.107 194.43 94.6053 194.363 98.1507C185.566 98.5558 176.325 98.6614 166.955 98.6795L164.739 93.2524L163.434 98.683C160.579 98.683 157.719 98.6792 154.852 98.6717C154.736 95.1363 155.548 91.6321 157.208 88.5095C158.868 85.3869 161.317 82.7552 164.311 80.8775Z" fill="#2F2E41"/>
<path d="M331.154 334.206C331.023 339.109 330.202 343.968 328.717 348.642C328.684 348.75 328.648 348.857 328.613 348.965H319.519C319.529 348.867 319.539 348.76 319.548 348.642C320.155 341.663 323.65 299.189 319.471 291.926C319.837 292.516 331.857 312.032 331.154 334.206Z" fill="#F0F0F0"/>
<path d="M329.694 348.289C329.535 348.516 329.37 348.743 329.201 348.966H314.936C315.045 348.773 315.17 348.547 315.315 348.289C317.672 344.03 324.646 331.3 331.121 318.099C338.079 303.914 344.463 289.191 343.925 283.863C344.09 285.065 348.903 321.701 329.694 348.289Z" fill="#F0F0F0"/>
</g>
<defs>
<clipPath id="clip0_2827_45624">
<rect width="363" height="350" fill="white" transform="translate(0.5)"/>
</clipPath>
</defs>
</svg>
