<svg width="28" height="22" viewBox="0 0 28 22" fill="none" xmlns="http://www.w3.org/2000/svg">
<path d="M24.6667 0.333252H3.33341C1.86275 0.333252 0.666748 1.52925 0.666748 2.99992V18.9999C0.666748 20.4706 1.86275 21.6666 3.33341 21.6666H24.6667C26.1374 21.6666 27.3334 20.4706 27.3334 18.9999V2.99992C27.3334 1.52925 26.1374 0.333252 24.6667 0.333252ZM9.62008 5.66658C11.1547 5.66658 12.2867 6.79858 12.2867 8.33325C12.2867 9.86792 11.1547 10.9999 9.62008 10.9999C8.08541 10.9999 6.95341 9.86792 6.95341 8.33325C6.95341 6.79858 8.08408 5.66658 9.62008 5.66658ZM14.5734 16.3333H4.66675V15.7133C4.66675 13.8826 6.90141 11.9999 9.62008 11.9999C12.3387 11.9999 14.5734 13.8826 14.5734 15.7133V16.3333ZM23.3334 14.9999H18.0001V12.3333H23.3334V14.9999ZM23.3334 9.66658H16.6667V6.99992H23.3334V9.66658Z" fill="#235DFF"/>
</svg>
